# Blender v3.1.2 OBJ File: ''
# www.blender.org
o Cube_Cube.001
v -1.000000 -1.000000 1.000000
v -1.000000 1.000000 1.000000
v -1.000000 -1.000000 -1.000000
v -1.000000 1.000000 -1.000000
v 1.000000 -1.000000 1.000000
v 1.000000 1.000000 1.000000
v 1.000000 -1.000000 -1.000000
v 1.000000 1.000000 -1.000000
vt 0.324219 0.396464
vt 0.074219 0.646464
vt 0.074219 0.396464
vt 0.865234 0.397385
vt 0.615234 0.647385
vt 0.615234 0.397385
vt 0.824219 0.707962
vt 0.574219 0.957962
vt 0.574219 0.707962
vt 0.365234 0.718487
vt 0.115234 0.968487
vt 0.115234 0.718487
vt 0.837891 0.047624
vt 0.587891 0.297624
vt 0.587891 0.047624
vt 0.333984 0.040601
vt 0.083984 0.290601
vt 0.083984 0.040601
vt 0.324219 0.646464
vt 0.865234 0.647385
vt 0.824219 0.957962
vt 0.365234 0.968487
vt 0.837891 0.297624
vt 0.333984 0.290601
vn -1.0000 0.0000 0.0000
vn 0.0000 0.0000 -1.0000
vn 1.0000 0.0000 0.0000
vn 0.0000 0.0000 1.0000
vn 0.0000 -1.0000 0.0000
vn 0.0000 1.0000 0.0000
s off
f 2/1/1 3/2/1 1/3/1
f 4/4/2 7/5/2 3/6/2
f 8/7/3 5/8/3 7/9/3
f 6/10/4 1/11/4 5/12/4
f 7/13/5 1/14/5 3/15/5
f 4/16/6 6/17/6 8/18/6
f 2/1/1 4/19/1 3/2/1
f 4/4/2 8/20/2 7/5/2
f 8/7/3 6/21/3 5/8/3
f 6/10/4 2/22/4 1/11/4
f 7/13/5 5/23/5 1/14/5
f 4/16/6 2/24/6 6/17/6
